# xmcd
#
# Track frame offsets: 
#        150
#        9454
#        22381
#        33471
#        46652
#        61953
#        81692
#        93911
#        104445
#        116306
#
# Disc length: 1757 seconds
#
# Revision: 5
# Processed by: cddbd v1.5.2PL0 Copyright (c) Steve Scherf et al.
# Submitted via: ExactAudioCopyFreeDBPlugin 1.0
#
DISCID=7c06db0a
DTITLE=Ronstadt, Linda - Silk Purse
DYEAR=1970
DGENRE=Rock
TTITLE0=Lovesick Blues
TTITLE1=Are My Thoughts With You?
TTITLE2=Will You Love Me Tomorrow?
TTITLE3=Nobody's
TTITLE4=Louise
TTITLE5=Long Long Time
TTITLE6=Mental Revenge
TTITLE7=I'm Leavin' It All Up To You
TTITLE8=He Dark The Sun
TTITLE9=Life Is Like A Mountain Railway
EXTD=
EXTT0=
EXTT1=
EXTT2=
EXTT3=
EXTT4=
EXTT5=
EXTT6=
EXTT7=
EXTT8=
EXTT9=
PLAYORDER=
